<?xml version="1.0" encoding="UTF-8" standalone="no"?>
<svg
   xmlns:dc="http://purl.org/dc/elements/1.1/"
   xmlns:cc="http://creativecommons.org/ns#"
   xmlns:rdf="http://www.w3.org/1999/02/22-rdf-syntax-ns#"
   xmlns:svg="http://www.w3.org/2000/svg"
   xmlns="http://www.w3.org/2000/svg"
   xmlns:sodipodi="http://sodipodi.sourceforge.net/DTD/sodipodi-0.dtd"
   xmlns:inkscape="http://www.inkscape.org/namespaces/inkscape"
   width="52.222221mm"
   height="63.904121mm"
   viewBox="0 0 52.222221 63.904121"
   version="1.1"
   id="svg8"
   inkscape:version="1.0 (4035a4fb49, 2020-05-01)"
   sodipodi:docname="bell.svg">
  <defs
     id="defs2" />
  <sodipodi:namedview
     fit-margin-bottom="0"
     fit-margin-right="0"
     fit-margin-left="0"
     fit-margin-top="0"
     id="base"
     pagecolor="#ffffff"
     bordercolor="#666666"
     borderopacity="1.0"
     inkscape:pageopacity="0.0"
     inkscape:pageshadow="2"
     inkscape:zoom="0.25"
     inkscape:cx="-435.04521"
     inkscape:cy="-138.85384"
     inkscape:document-units="mm"
     inkscape:current-layer="layer1"
     inkscape:document-rotation="0"
     showgrid="false"
     units="mm"
     inkscape:window-width="2560"
     inkscape:window-height="1377"
     inkscape:window-x="1072"
     inkscape:window-y="473"
     inkscape:window-maximized="1">
    <inkscape:grid
       originy="-18.095876"
       originx="-23.888889"
       type="xygrid"
       id="grid18"
       units="mm"
       spacingx="0.5"
       spacingy="0.5"
       empspacing="10" />
  </sodipodi:namedview>
  <metadata
     id="metadata5">
    <rdf:RDF>
      <cc:Work
         rdf:about="">
        <dc:format>image/svg+xml</dc:format>
        <dc:type
           rdf:resource="http://purl.org/dc/dcmitype/StillImage" />
        <dc:title></dc:title>
      </cc:Work>
    </rdf:RDF>
  </metadata>
  <g
     transform="translate(-23.888889,-18.095877)"
     inkscape:label="Layer 1"
     inkscape:groupmode="layer"
     id="layer1">
    <circle
       style="fill:#ffffff;stroke-width:0.5"
       id="path10"
       cx="50"
       cy="23.095877"
       r="5" />
    <circle
       style="fill:#ffffff;stroke-width:0.5"
       id="path12"
       cx="50"
       cy="50"
       r="20" />
    <rect
       style="fill:#ffffff;stroke-width:0.5"
       id="rect16"
       width="10"
       height="10"
       x="45"
       y="23.276684" />
    <path
       style="fill:#ffffff"
       d="m 30,50 c 0,14.999999 -5,19.999999 -5,19.999999 0,0 -2.5,2.500001 0,2.500001 2.5,0 2.5,0 2.5,0 H 34.999998 50 V 50 Z"
       id="path43" />
    <path
       id="path43-5"
       d="m 70,50 c 0,14.999999 5,19.999999 5,19.999999 0,0 2.5,2.500001 0,2.500001 -2.5,0 -2.5,0 -2.5,0 H 65.000002 50 V 50 Z"
       style="fill:#ffffff;stroke-width:1" />
    <path
       style="fill:#ffffff;stroke-width:0.8"
       d="m 42,74 c 0,8 8,8 8,8 v -8 z"
       id="path62" />
    <path
       id="path62-7"
       d="m 58,74 c 0,8 -8,8 -8,8 v -8 z"
       style="fill:#ffffff;stroke-width:0.8" />
  </g>
</svg>
