<?xml version="1.0" encoding="UTF-8" standalone="no"?>
<svg
   xmlns:dc="http://purl.org/dc/elements/1.1/"
   xmlns:cc="http://creativecommons.org/ns#"
   xmlns:rdf="http://www.w3.org/1999/02/22-rdf-syntax-ns#"
   xmlns:svg="http://www.w3.org/2000/svg"
   xmlns="http://www.w3.org/2000/svg"
   id="svg8"
   version="1.1"
   viewBox="0 0 52.222221 63.904121"
   height="63.904121mm"
   width="52.222221mm">
  <defs
     id="defs2" />
  <metadata
     id="metadata5">
    <rdf:RDF>
      <cc:Work
         rdf:about="">
        <dc:format>image/svg+xml</dc:format>
        <dc:type
           rdf:resource="http://purl.org/dc/dcmitype/StillImage" />
        <dc:title></dc:title>
      </cc:Work>
    </rdf:RDF>
  </metadata>
  <g
     id="layer1"
     transform="translate(-23.888889,-18.095877)">
    <circle
       r="5"
       cy="23.095877"
       cx="50"
       id="path10"
       style="fill:#ffffff;stroke-width:0.5" />
    <circle
       r="20"
       cy="50"
       cx="50"
       id="path12"
       style="fill:#ffffff;stroke-width:0.5" />
    <rect
       y="23.276684"
       x="45"
       height="10"
       width="10"
       id="rect16"
       style="fill:#ffffff;stroke-width:0.5" />
    <path
       id="path43"
       d="m 30,50 c 0,14.999999 -5,19.999999 -5,19.999999 0,0 -2.5,2.500001 0,2.500001 2.5,0 2.5,0 2.5,0 H 34.999998 50 V 50 Z"
       style="fill:#ffffff" />
    <path
       style="fill:#ffffff;stroke-width:1"
       d="m 70,50 c 0,14.999999 5,19.999999 5,19.999999 0,0 2.5,2.500001 0,2.500001 -2.5,0 -2.5,0 -2.5,0 H 65.000002 50 V 50 Z"
       id="path43-5" />
    <path
       id="path62"
       d="m 42,74 c 0,8 8,8 8,8 v -8 z"
       style="fill:#ffffff;stroke-width:0.8" />
    <path
       style="fill:#ffffff;stroke-width:0.8"
       d="m 58,74 c 0,8 -8,8 -8,8 v -8 z"
       id="path62-7" />
  </g>
</svg>
