<?xml version="1.0" encoding="UTF-8" standalone="no"?>
<svg
   xmlns:dc="http://purl.org/dc/elements/1.1/"
   xmlns:cc="http://creativecommons.org/ns#"
   xmlns:rdf="http://www.w3.org/1999/02/22-rdf-syntax-ns#"
   xmlns:svg="http://www.w3.org/2000/svg"
   xmlns="http://www.w3.org/2000/svg"
   viewBox="0 0 204.09447 204.0945"
   height="54mm"
   width="54mm"
   id="svg36"
   version="1.1">
  <metadata
     id="metadata42">
    <rdf:RDF>
      <cc:Work
         rdf:about="">
        <dc:format>image/svg+xml</dc:format>
        <dc:type
           rdf:resource="http://purl.org/dc/dcmitype/StillImage" />
        <dc:title></dc:title>
      </cc:Work>
    </rdf:RDF>
  </metadata>
  <defs
     id="defs40" />
  <g
     transform="translate(18.108269,8.4878421)"
     id="g44">
    <path
       id="path48"
       d="M 70.242407,161.98121 C 31.893152,136.21329 10.789823,113.64804 3.3921911,90.5 -0.08155445,79.630249 -0.26338675,63.698803 2.9756013,54 7.6217507,40.087603 18.457241,27.705 31.333315,21.593316 40.616509,17.187008 46.456378,16.027795 57.5,16.399235 c 6.862168,0.230802 11.078448,1.022418 17.75,3.332605 L 84,22.761739 92.75,19.73184 c 9.80673,-3.395816 22.82764,-4.457079 31.75,-2.587766 13.12577,2.749964 26.62495,12.23085 34.29809,24.088603 6.44387,9.95807 8.48002,17.280201 8.41682,30.267323 -0.0866,17.799747 -4.94855,29.9942 -18.92174,47.45852 C 136.76699,133.36447 108.50781,156.48981 88,168.29825 l -4.5,2.5911 z M 93.6518,114.15135 c 11.03452,-8.54091 25.95654,-24.089931 29.61157,-30.855818 5.1277,-9.491974 5.33723,-17.876445 0.61881,-24.762524 -6.63734,-9.686568 -22.51238,-8.394832 -34.508987,2.807963 L 83.848604,66.5 78.579782,61.380022 C 67.171855,50.294367 50.683347,48.896927 44.156264,58.462547 36.830389,69.198818 40.571845,81.139429 56.5,97.856772 64.6308,106.39043 81.990663,121 84,121 c 0.44198,0 4.78529,-3.08189 9.6518,-6.84865 z"
       style="fill:#c0000f;fill-opacity:1" />
  </g>
</svg>
